<svg xmlns="http://www.w3.org/2000/svg" width="145.415" height="36" viewBox="0 0 145.415 36">
  <g id="Logo" transform="translate(-98 -23)">
    <path id="Path_499" data-name="Path 499" d="M36.85,36.85v22.5l22.5-22.5Z" transform="translate(70.9 -4.1)" fill="#f8bc54"/>
    <g id="Group_1309" data-name="Group 1309" transform="translate(98 23)">
      <path id="Path_500" data-name="Path 500" d="M7.5,7.5h21L36,0H0V36l7.5-7.5Z" fill="#eb636e"/>
    </g>
    <g id="Group_1310" data-name="Group 1310" transform="translate(135.498 29.916)">
      <path id="Path_501" data-name="Path 501" d="M153.245,55.568,148.38,48.94h-2.818v6.628H141.72V36.79h7.057c3.926,0,6.771,2.447,6.771,6.059a5.818,5.818,0,0,1-3.3,5.35l5.321,7.369Zm-7.681-10.015h3.215a2.694,2.694,0,1,0,0-5.379h-3.215Z" transform="translate(-141.72 -33.972)" fill="#243042"/>
      <path id="Path_502" data-name="Path 502" d="M216.79,67.739h-3.527V66.374a5.864,5.864,0,0,1-4.3,1.707c-2.987,0-4.866-1.736-4.866-4.21,0-2.532,2.048-4.1,5.321-4.1h3.527v-.627a2.306,2.306,0,0,0-2.617-2.477A4.817,4.817,0,0,0,206.6,58.6l-1.992-2.36a7.682,7.682,0,0,1,6.146-2.9c3.67,0,6.033,2.135,6.033,6.033ZM212.948,62.3h-3.016c-1.252,0-1.963.484-1.963,1.423s.8,1.537,2.019,1.537a2.8,2.8,0,0,0,2.958-2.789V62.3Z" transform="translate(-187.595 -46.143)" fill="#243042"/>
      <path id="Path_503" data-name="Path 503" d="M265.367,26.14a2.378,2.378,0,1,1,0,4.752,2.377,2.377,0,1,1,0-4.752Zm-1.908,7.512H267.3V47.736H263.46Z" transform="translate(-230.852 -26.14)" fill="#243042"/>
      <path id="Path_504" data-name="Path 504" d="M292.81,27.11h3.842V48.449H292.81Z" transform="translate(-252.833 -26.853)" fill="#243042"/>
      <path id="Path_505" data-name="Path 505" d="M333.278,27.11V48.449h-1.365V45.66a6.282,6.282,0,0,1-5.6,3.072,6.938,6.938,0,0,1-6.829-7.141,6.877,6.877,0,0,1,6.829-7.17,6.343,6.343,0,0,1,5.548,2.958V27.11Zm-6.829,8.649a5.517,5.517,0,0,0-5.49,5.805,5.558,5.558,0,0,0,5.49,5.832c2.844,0,5.406-1.879,5.406-5.805C331.855,37.638,329.3,35.759,326.449,35.759Z" transform="translate(-272.447 -26.853)" fill="#243042"/>
      <path id="Path_506" data-name="Path 506" d="M389.761,31.09a1.252,1.252,0,1,1,0,2.5,1.252,1.252,0,1,1,0-2.5Zm-.712,6.543h1.423V51.376H389.05Z" transform="translate(-323.212 -29.78)" fill="#243042"/>
      <path id="Path_507" data-name="Path 507" d="M421.14,68.783h-1.365V66.622A6.221,6.221,0,0,1,411.5,68.1a3.223,3.223,0,0,1-1.365-2.76c0-2.246,1.905-3.67,4.778-3.67h4.781V60.107c0-2.617-1.479-4.011-3.784-4.011a5.059,5.059,0,0,0-4.183,2.3l-.995-.8a6.117,6.117,0,0,1,5.263-2.844c3.1,0,5.149,1.905,5.149,5.406v8.618Zm-1.45-5.89h-4.638c-2.249,0-3.442.855-3.442,2.36,0,1.677,1.537,2.561,3.387,2.561a4.441,4.441,0,0,0,4.694-4.154Z" transform="translate(-339.112 -47.187)" fill="#243042"/>
      <path id="Path_508" data-name="Path 508" d="M476.593,56.836h-.712a4.468,4.468,0,0,0-4.667,4.411v8.081H469.79V55.585h1.365v2.334a5.172,5.172,0,0,1,4.551-2.418c.37,0,.741.085.881.085v1.252Z" transform="translate(-382.986 -47.732)" fill="#243042"/>
      <path id="Path_509" data-name="Path 509" d="M512.974,55.82l-6.855,15.989c-.995,2.249-2.334,3.159-4.3,3.159a7.312,7.312,0,0,1-1.934-.257V73.46a7.534,7.534,0,0,0,1.736.2,3.186,3.186,0,0,0,3.186-2.363l.881-2.019L499.8,55.82h1.564l5.093,11.835,4.98-11.835Z" transform="translate(-405.056 -47.967)" fill="#243042"/>
    </g>
  </g>
</svg>
